<svg width="40" height="40" viewBox="0 0 40 40" fill="none" xmlns="http://www.w3.org/2000/svg">
<path d="M40 20C40 8.9543 31.0457 0 20 0C8.9543 0 0 8.9543 0 20C0 31.0457 8.9543 40 20 40C31.0457 40 40 31.0457 40 20Z" fill="#F06060"/>
<path d="M12.7344 16.9004V20.0004V23.1004L28.5938 32.4012V20.0004V7.59961L12.7344 16.9004Z" fill="#FFD34E"/>
<path d="M29.9877 6.72266H28.7924C28.6086 6.72266 28.4596 6.87166 28.4596 7.05547V32.9453C28.4596 33.1291 28.6086 33.2781 28.7924 33.2781H29.9877C30.1715 33.2781 30.3205 33.1291 30.3205 32.9453V7.05547C30.3205 6.87166 30.1715 6.72266 29.9877 6.72266Z" fill="#334D5C"/>
<path d="M6.08732 20.0524C6.08732 20.1201 6.09045 20.1883 6.0967 20.257C6.15497 21.1004 6.53158 21.89 7.15025 22.466C7.76893 23.042 8.58341 23.3614 9.42873 23.3594H12.6967V16.6406H9.42873C8.98368 16.6396 8.54292 16.7276 8.13243 16.8996C7.72194 17.0716 7.35003 17.324 7.03862 17.6419C6.72722 17.9599 6.48261 18.337 6.31923 18.7509C6.15585 19.1649 6.077 19.6074 6.08732 20.0524Z" fill="#046380"/>
<path d="M9.19617 23.3594V30.8375C9.19617 31.2519 9.36079 31.6493 9.65381 31.9424C9.94684 32.2354 10.3443 32.4 10.7587 32.4C11.1731 32.4 11.5705 32.2354 11.8635 31.9424C12.1566 31.6493 12.3212 31.2519 12.3212 30.8375V23.3594H9.19617Z" fill="#5C4B51"/>
<path d="M12.9797 16.1914H12.5117C12.3012 16.1914 12.1305 16.3621 12.1305 16.5727V23.4273C12.1305 23.6379 12.3012 23.8086 12.5117 23.8086H12.9797C13.1903 23.8086 13.361 23.6379 13.361 23.4273V16.5727C13.361 16.3621 13.1903 16.1914 12.9797 16.1914Z" fill="#334D5C"/>
</svg>
